PathFileType	4	(X/Y/Z)	Patient4_TMGait_0pt7_02_left_26.trc.trc
DataRate	CameraRate	NumFrames	NumMarkers	Units	OrigDataRate	OrigDataStartFrame	OrigNumFrames
86.419753086420	86.419753086420	4	33	mm	86.419753086420	18	       141
Frame#	Time	Sacral			L.Shoulder			Chest			R.Shoulder			Neck			R.ASIS			L.ASIS			R.Thigh.Superior			R.Thigh.Lateral			R.Thigh.Inferior			R.Patella			L.Thigh.Superior			L.Thigh.Lateral			L.Thigh.Inferior			L.Patella			L.Shank.Superior			L.Shank.Lateral			L.Shank.Inferior			R.Shank.Superior			R.Shank.Lateral			R.Shank.Inferior			R.Heel			R.Midfoot.Superior			R.Midfoot.Lateral			R.Toe			L.Heel			L.Midfoot.Lateral			L.Midfoot.Superior			L.Toe			L.Elbow			L.Wrist			R.Elbow			R.Wrist			
		X1	Y1	Z1	X2	Y2	Z2	X3	Y3	Z3	X4	Y4	Z4	X5	Y5	Z5	X6	Y6	Z6	X7	Y7	Z7	X8	Y8	Z8	X9	Y9	Z9	X10	Y10	Z10	X11	Y11	Z11	X12	Y12	Z12	X13	Y13	Z13	X14	Y14	Z14	X15	Y15	Z15	X16	Y16	Z16	X17	Y17	Z17	X18	Y18	Z18	X19	Y19	Z19	X20	Y20	Z20	X21	Y21	Z21	X22	Y22	Z22	X23	Y23	Z23	X24	Y24	Z24	X25	Y25	Z25	X26	Y26	Z26	X27	Y27	Z27	X28	Y28	Z28	X29	Y29	Z29	X30	Y30	Z30	X31	Y31	Z31	X32	Y32	Z32	X33	Y33	Z33	

18	29.796714285714	869.873074570165	1017.785889478850	520.523756728723	1045.566151766209	1423.520493829057	305.130252331206	1171.888912061255	1345.771142744573	445.306876133944	1133.878928035629	1434.598372754383	627.077672245723	1083.368659645707	1487.518195404184	455.284083133642	1098.168474374222	938.378943514754	614.901189225298	1060.841114386882	953.297191045259	340.610974270767	1097.371938401799	726.842796438712	588.764570536275	996.183545881045	632.383242363663	650.963596069603	1055.952789691001	567.772536276489	568.991674408768	1039.930543675942	483.125903580391	572.521415111278	1146.562376336521	796.875604891755	380.374214740195	1123.559916907572	666.323030411960	293.049710244624	1229.377342756839	616.674175025876	358.763000380156	1264.934098887997	548.226964085742	352.452318579751	1244.475503277425	470.571632214898	340.457626961247	1175.411396836003	347.614592528913	275.738691829236	1249.725122870712	240.292586228646	333.243405930112	1002.561308675729	399.815299517037	578.340132216715	922.929622156212	302.789422898563	640.648776805357	952.498717485905	205.587689678583	573.140458819519	803.177320338341	46.962321000077	543.422348470401	976.931409631234	97.021081761489	575.832722600951	887.708026070879	38.228880351425	615.038481134420	1095.962864604791	39.726733414129	601.418749378792	1154.780576671105	61.396348240378	353.227566867740	1235.767310924496	68.965110065683	280.379819301721	1305.223572217524	144.125761362639	311.696307033741	1440.608235477582	113.933068766623	296.115714962207	870.094184992241	1112.844313969400	230.605052249125	797.472169594599	864.621043059693	249.078837809955	1283.333340515891	1129.828661557702	723.687973483972	1482.054484900883	1219.746996746081	601.127440669641	
19	29.808285714286	871.061885429179	1016.050947772875	517.811277721569	1045.473434165872	1422.897976679026	304.135393897913	1171.273590576772	1345.408671909952	444.779068302987	1131.951834611069	1433.779431559500	626.196148539645	1082.193440992724	1486.547006797106	454.671229289110	1098.430695312150	937.627861368543	614.389608560071	1063.628183321706	951.294760361425	339.733904372216	1094.938956305989	725.368006770558	589.077504823808	991.448426661417	632.218383027890	650.659506578261	1050.673229178487	566.621162206568	569.437945751411	1033.821205544157	482.165921216081	572.893971000223	1147.126413803771	791.819917959947	380.039265493941	1121.708752362953	661.521127471883	292.533880646105	1226.092209056493	610.169086186457	358.887535042519	1260.586183983357	542.566748006860	352.776920701828	1241.199502654283	465.695198429484	340.379185969031	1174.081847459692	341.227595726790	276.750271628042	1250.853792147485	235.577836278661	334.231635992834	995.678540725234	399.468770169335	578.389799871697	915.386449317708	302.868447898801	640.577698778366	944.753609491091	205.449752807024	573.164750224820	794.980874761177	46.927271368577	543.351355205616	968.715411907780	96.942906273782	575.799446813749	879.470665295403	38.194846086114	614.975275826043	1087.753123054414	39.704829744001	601.444644385543	1159.188521553715	55.772334237603	355.664158506364	1239.652391705169	63.910728175342	282.338668243862	1308.437089912142	139.741400885931	313.014982117238	1444.059606036053	110.875521268030	296.803019525143	863.897625314771	1117.055835070312	229.552448222709	786.333217223121	870.349330122820	250.829289392700	1290.263629176024	1134.190222316689	718.821624938147	1483.487542599856	1234.451805749102	596.119640926477	
20	29.819857142857	872.398394141920	1014.090192115695	514.917474942699	1045.384624120253	1422.123552834352	302.966764580365	1170.669109398320	1345.053394560231	444.158084372881	1129.772305873520	1432.865352725640	625.221504440570	1080.864634292632	1485.453845534675	453.890014679785	1098.937304887077	936.649231598446	613.692557185036	1066.606066148603	949.150931322984	338.821058679536	1092.899314826065	723.738773649063	589.064787311866	987.239202896743	631.913721919343	650.147868677767	1045.859045171688	565.373259583460	569.553663743299	1028.198436077591	481.000969733764	572.974666811314	1147.877994014610	786.432421528710	379.552560593423	1119.725421294571	656.492928483298	291.982814754207	1222.828325517520	603.517211288836	358.839952402735	1256.037239527283	536.492307973811	352.904748135677	1237.418652969780	460.400479209781	340.166210043879	1171.316713258405	334.776362498372	278.213429447987	1250.222610671873	230.506382642314	335.422566768910	989.170170702022	398.941710812727	578.220433318132	908.173710171106	302.897592826330	640.396618569925	937.150285781121	205.213487444826	573.090094713638	786.783776647906	46.895231010845	543.295274045228	960.494371359000	96.867459517753	575.759716331796	871.239092489056	38.165059630355	614.925757013434	1079.540976826271	39.666774573052	601.474218187608	1160.782219112517	50.804396754891	358.925340602005	1240.424527501150	58.807323674242	284.784606515109	1309.294721434065	134.574631708674	314.533848490053	1444.754759704589	105.804912340589	297.150104342219	858.494744401165	1120.844768228943	228.564023569965	776.174305642210	875.642924218776	252.368457718104	1296.164820218477	1138.445251929451	714.220000744782	1483.868608007132	1247.985138783063	591.496086628705	
21	29.831428571429	873.813572622167	1011.978229803000	511.876032499957	1045.322201235727	1421.206927883414	301.608391069836	1170.101540679931	1344.699886194552	443.426435060719	1127.407270085807	1431.869188783029	624.149172282161	1079.440389965996	1484.272547085732	452.905178064014	1099.638753017457	935.465703114851	612.805053291289	1069.677032568917	946.940092104293	337.869519218794	1091.287663040651	721.989190990731	588.708554636531	983.651807405417	631.452813095316	649.414740581699	1041.634193875890	564.032143372667	569.317889229510	1023.165398233043	479.631998952506	572.727888489967	1148.793713744695	780.913408455822	378.878328361720	1117.631599972634	651.411063596238	291.436852496461	1219.701588640027	596.982823926492	358.621189176018	1251.440766121144	530.263720452022	352.920446536054	1233.324209961859	454.916434962684	339.895342988474	1167.445803037348	328.468412464110	279.965114883732	1248.074842948185	225.253563787198	336.743787189035	983.149128983424	398.207767615707	577.804605901300	901.391703928167	302.879964888866	640.095878259781	929.741514269855	204.882051461037	572.910651988310	778.593798005483	46.916697298881	543.265481704094	952.283276627484	96.800119041621	575.710486825167	863.023836711655	38.164848301309	614.900512099292	1071.334599366648	39.603601384170	601.510103939915	1159.772246273979	46.580541865486	362.640452541560	1238.436462073154	53.830761282338	287.476468665049	1308.080348527165	128.831709326561	316.198993107752	1443.055010737757	98.988979596898	297.305090640752	853.934655821220	1124.091283503376	227.619228347309	767.051767985169	880.400030040593	253.634386254875	1301.044276350536	1142.446276392239	709.962310891521	1483.288425572648	1260.271042232728	587.296296363936	
